<?xml version="1.0" encoding="utf-8"?>
<!-- Generator: Adobe Illustrator 19.0.0, SVG Export Plug-In . SVG Version: 6.00 Build 0)  -->
<svg version="1.1" id="Ebene_1" xmlns="http://www.w3.org/2000/svg" xmlns:xlink="http://www.w3.org/1999/xlink" x="0px" y="0px"
	 viewBox="0 0 579.7 380" style="enable-background:new 0 0 579.7 380;" xml:space="preserve">
<style type="text/css">
	.st0{fill:#FFFFFF;}
	.st1{fill:#00468E;}
	.st2{fill:#DA251C;}
</style>
<g>
	<path class="st0" d="M0,190.2V18.3C0,8.9,8.6,0,17.4,0H561c11.1,0,18.6,9,18.6,18.3v171.8H0z M0,189.8v171.8
		C0,371,8.6,380,17.4,380H561c11.1,0,18.6-9,18.6-18.3V189.8H0z"/>
	<g>
		<path class="st1" d="M10.1,190.2V27.7c0-8.9,8.3-17.3,16.8-17.3h524.7c10.7,0,18,8.5,18,17.3v162.4H10.1z"/>
		<path class="st2" d="M10.1,189.8v162.4c0,8.8,8.3,17.3,16.8,17.3h524.7c10.7,0,18-8.5,18-17.3V189.8H10.1z"/>
	</g>
	<rect x="134.8" y="29.3" class="st0" width="40" height="141.8"/>
	<rect x="498.6" y="29.1" class="st0" width="40" height="141.8"/>
	<polygon class="st0" points="41,208.9 75.9,208.9 113.5,262.7 150.4,208.9 185.5,208.9 185.5,350.8 150.4,350.8 150.4,260.4 
		117,305.3 110.2,305.3 75.9,260 75.9,350.8 41,350.8 	"/>
	<polygon class="st0" points="124.5,171.1 41,171.1 41,29.3 77,29.3 77,137.4 124.5,137.4 	"/>
	<polygon class="st0" points="447,350.2 359.9,350.2 359.9,208.5 399.5,208.5 399.5,316.5 447,316.5 	"/>
	<path class="st0" d="M354.5,29.1h39.5v88.5c0,15.6,10.5,25.1,26,25.1c16.1,0,25.8-9.5,25.8-24.8c0-34.5,0-88.7,0-88.7H485v104
		c0,0-2.4,42-65.2,42s-65.4-42-65.4-42L354.5,29.1z"/>
	<polygon class="st0" points="421.3,208.9 467.3,209 491.7,251 515.2,208.9 561.3,208.9 510.5,284.5 510.3,350.8 472.4,350.8 
		472.4,284.5 	"/>
	<path class="st0" d="M310,279.7c0,24.5-18.2,41.4-37.6,41.4c-17.1,0-36.9-14.7-36.9-41.4s20-40.9,37-40.9
		C292.5,238.7,310,255.1,310,279.7z M273,204.2c-35.9,0-79.3,26-79.3,75.2s43.1,76.2,79.2,76.2c36.6,0,79.2-26.7,79.4-76
		C352.4,229.9,308.6,204.2,273,204.2z"/>
	<g>
		<path class="st0" d="M301.9,99.6c0,27-17.8,41.2-37.2,41.2c-19,0-37.2-13.9-37.2-40.7c0-25.3,18-41.2,36.4-41.2
			C283.9,59,301.9,75.1,301.9,99.6z M264.3,24.5c-35.9,0-78.2,26-78.2,75.2s41.9,76.1,78,76.1c41,0,79.4-30.9,79.4-76
			C343.5,56.6,307.6,24.5,264.3,24.5z"/>
		<polygon class="st0" points="284.9,108 258.8,121.5 315.7,185 344.5,170.7 		"/>
	</g>
</g>
</svg>
