<?xml version="1.0" encoding="utf-8"?>
<!-- Generator: Adobe Illustrator 19.2.1, SVG Export Plug-In . SVG Version: 6.00 Build 0)  -->
<svg version="1.1" id="layer" xmlns="http://www.w3.org/2000/svg" xmlns:xlink="http://www.w3.org/1999/xlink" x="0px" y="0px"
	 viewBox="0 185 652 280" style="enable-background:new 0 0 652 652;" xml:space="preserve">
<style type="text/css">
	.st0{fill:#FF000A;}
	.st1{fill:#FFFFFF;}
</style>
<g>
	<path class="st0" d="M107.5,420c-56.8-22.6-92.3-54.4-92.4-91.2c0.1-36.9,35.5-69.5,92.4-93.1c56.9-23.5,135.4-38,222.2-38
		c86.8,0,164,14.2,219.5,37.4c55.5,23.3,89.6,55.7,89.6,92.5c-0.1,36.9-34.1,68.9-89.6,91.8c-55.5,22.9-132.6,36.7-219.5,36.7
		C242.9,456.1,164.4,442.6,107.5,420"/>
	<path class="st1" d="M22.3,328.7c0-70.3,139-109.7,307.3-109.7c168.4,0,302,38.3,302,108.6c0,70.3-133.6,107.2-302,107.2
		C161.3,434.8,22.3,399,22.3,328.7"/>
</g>
<polygon class="st0" points="83.8,354.7 106.9,354.7 114.3,303.3 114.6,303.3 135.1,354.7 144.3,354.7 165.7,303.3 166,303.3 
	172.5,354.7 195.7,354.7 182.2,265.4 159.1,265.4 139.9,313.1 121.8,265.4 98.9,265.4 "/>
<rect x="443.6" y="265.4" class="st0" width="23.2" height="89.3"/>
<polygon class="st0" points="476.4,354.7 499.6,354.7 499.6,300 499.8,300 542.3,354.7 565.6,354.7 565.6,265.4 542.3,265.4 
	542.3,320 542.1,320 499.6,265.4 476.4,265.4 "/>
<g>
	<path class="st0" d="M252.7,285.1h-27.6V300h26.2v19.7h-26.2v15.4h27.6v19.7h-50.8v-89.3h7.5c-1,1.3-1.7,2.7-1.9,3.9
		c-1.1,5.1-0.8,8.8,2.9,11.7c3.6,2.7,7,2.2,11.6,0.1c3.2-1.4,6.9-6.8,7.8-10.7c0.3-1.3,0.8-3,1.6-5h21.4V285.1z"/>
	<path class="st0" d="M234.6,251.1c0,0-12.6,10.4-17.9,12.4c-2.6,1-5.6,4.3-6.1,6.7c-0.7,3.5-0.5,6,2,8c2.5,1.9,4.8,1.5,7.9,0.1
		c2.2-1,4.7-4.6,5.3-7.3C227.1,265.6,234.6,251.1,234.6,251.1"/>
	<path class="st0" d="M303.8,304.9v18.2h18.9c-1,10.3-8.6,15.5-18.7,15.5c-15.3,0-23.6-14.1-23.6-27.9c0-13.6,7.9-25.2,23.2-25.2
		l52.8-0.1l0.1-19.9h-52.6c-28.8,0-47.6,16.1-47.6,45.1c0,28.1,19.5,47.1,47.6,47.1c14.9,0,28.1-5.3,36.8-17.5
		c8-11.1,8.9-22.3,9.1-35.3H303.8z M411.2,265.4l0,47c0,11.6-0.8,24.3-15.8,24.3c-14.9,0-15.8-12.7-15.8-24.3l0-47h-23.2l0,50.2
		c0,11.5,0.5,22.9,9.4,31.5c7.5,7.3,19.2,10,29.6,10c10.4,0,22.1-2.6,29.6-10c8.9-8.6,9.4-20,9.4-31.5l0-50.2H411.2z"/>
	<path class="st0" d="M98,371.8c3.9,0,7.1,3.1,7.1,6.6c0,4.3-3.2,7.4-7.1,7.4c-3.9,0-7-3.1-7-7.4C91,374.9,94.2,371.8,98,371.8
		 M98,365.5c-7.2,0-13.8,5.3-13.8,12.9c0,8.1,5.8,13.8,13.8,13.8c8,0,13.8-5.7,13.8-13.8C111.9,370.8,105.2,365.5,98,365.5"/>
</g>
<rect x="126.5" y="366.3" class="st0" width="6.5" height="25"/>
<polygon class="st0" points="155.3,366.3 148.8,366.3 148.8,391.3 163.1,391.3 163.1,385.8 155.3,385.8 "/>
<g>
	<path class="st0" d="M193.1,367.7c-2.2-1.3-5.3-2.1-7.8-2.1c-5,0-8.6,3.3-8.6,8.4c0,4.8,2.7,5.9,6.8,7.1c1.4,0.4,3.9,1,3.9,2.8
		c0,1.8-1.6,2.5-3.1,2.5c-2.2,0-4.1-1.2-5.8-2.6l-2.8,5.2c2.6,1.8,5.6,2.8,8.8,2.8c2.5,0,5.1-0.7,7.1-2.4c2-1.7,2.6-4.2,2.6-6.7
		c0-4-2.7-5.8-6.2-6.8l-1.7-0.5c-1.1-0.4-2.9-0.9-2.9-2.4c0-1.4,1.6-2.1,2.8-2.1c1.6,0,3.1,0.7,4.3,1.7L193.1,367.7z"/>
	<path class="st0" d="M241.1,371.8c3.9,0,7.1,3.1,7.1,6.6c0,4.3-3.2,7.4-7.1,7.4c-3.9,0-7-3.1-7-7.4
		C234,374.9,237.2,371.8,241.1,371.8 M241.1,365.5c-7.2,0-13.8,5.3-13.8,12.9c0,8.1,5.8,13.8,13.8,13.8c8,0,13.8-5.7,13.8-13.8
		C254.9,370.8,248.2,365.5,241.1,365.5"/>
</g>
<polygon class="st0" points="283.8,371.8 283.8,366.3 269.5,366.3 269.5,391.3 276,391.3 276,381.5 283.1,381.5 283.1,376 276,376 
	276,371.8 "/>
<g>
	<path class="st0" d="M330.8,377.3v5.1h5.3c-0.3,2.9-2.4,4.3-5.2,4.3c-4.3,0-6.6-3.9-6.6-7.8c0-3.8,2.2-7.9,6.5-7.9
		c2.6,0,4.5,1.6,5.4,4l6.2-2.6c-2.2-4.7-6.1-7-11.3-7c-8,0-13.5,5.3-13.5,13.5c0,7.9,5.5,13.2,13.3,13.2c4.2,0,7.9-1.5,10.3-4.9
		c2.2-3.1,2.5-6.2,2.5-9.9H330.8z"/>
</g>
<polygon class="st0" points="372.5,371.8 372.5,366.3 358.3,366.3 358.3,391.3 372.5,391.3 372.5,385.8 364.8,385.8 364.8,381.5 
	372.1,381.5 372.1,376 364.8,376 364.8,371.8 "/>
<g>
	<path class="st0" d="M394.6,371.3h0.6c2.1,0,4.5,0.4,4.5,3.1c0,2.7-2.4,3.1-4.5,3.1h-0.6V371.3z M401,381c3.5-0.6,5.5-3.6,5.5-7.1
		c0-5.3-3.7-7.7-8.7-7.7h-9.7v25h6.5v-9.6h0.1l6.1,9.6h8.1L401,381z"/>
</g>
<polygon class="st0" points="420.7,391.3 427.2,391.3 429.3,376.9 429.4,376.9 435.1,391.3 437.7,391.3 443.7,376.9 443.7,376.9 
	445.6,391.3 452,391.3 448.3,366.3 441.8,366.3 436.4,379.6 431.4,366.3 425,366.3 "/>
<path class="st0" d="M480,382h-5.4l2.7-8h0.1L480,382z M481.7,386.9l1.6,4.3h6.9l-9.4-25h-7.1l-9.6,25h6.9l1.7-4.3H481.7z"/>
<polygon class="st0" points="503.9,391.3 510.4,391.3 510.4,376 510.4,376 522.3,391.3 528.8,391.3 528.8,366.3 522.3,366.3 
	522.3,381.6 522.3,381.6 510.4,366.3 503.9,366.3 "/>
<polygon class="st0" points="551.1,379.3 551.1,391.3 557.6,391.3 557.6,379.3 566.8,366.3 559.1,366.3 554.4,373.1 549.7,366.3 
	541.9,366.3 "/>
</svg>
